<?xml version="1.0" encoding="utf-8"?>
<!-- Generator: Adobe Illustrator 19.0.0, SVG Export Plug-In . SVG Version: 6.00 Build 0)  -->
<svg version="1.1" id="Layer_1" xmlns="http://www.w3.org/2000/svg" xmlns:xlink="http://www.w3.org/1999/xlink" x="0px" y="0px"
	 viewBox="0 0 64 64" style="enable-background:new 0 0 64 64;" xml:space="preserve">
<g id="XMLID_1_">
	<path id="XMLID_40_" d="M60.2,26.7c-0.4-0.7-1-1.5-1.7-1.9c-0.8-0.5-1.7-0.8-2.6-0.8H35.1c0.6-3,0.7-6.5,0.7-8.4
		c-0.1-2.5-0.4-3.8-0.5-4c-0.4-1.7-1.3-3-2.6-3.8c-1.2-0.7-2.6-1-4-0.8c-2.1,0.3-4.3,2.1-4,5.1c0.4,3.7-0.6,6.3-1.5,7.7
		c-0.8,1.2-1.6,1.9-1.9,2.1c-2.4,0.9-4.1,1.7-5.3,2.8c-0.5-0.4-1.2-0.8-1.9-0.8H6c-1.6,0-3,1.5-3,3.1v24.2C3,52.9,4.4,54,6,54h8.1
		c1.1,0,2-0.5,2.5-1.4c0,0,0,0.1,0,0.1c0.9,1,2.1,1.8,3.4,2.4c1.7,0.7,3.2,1,4,1l9.1,0c0.1,0,0.2,0,0.4,0.1l6.8,0.3
		c0.1,0,0.1,0,0.2,0c1,0,1.9-0.4,2.6-1c0.8-0.7,1.2-1.7,1.2-2.7l0.1-2.4c0-0.6-0.1-1.2-0.3-1.7c1.3-0.6,2.2-1.9,2.3-3.4l0.1-2.4
		c0-0.6-0.1-1.2-0.3-1.7c0.4-0.2,0.7-0.4,1-0.7c0.8-0.7,1.2-1.7,1.2-2.7l0.1-2.4c0-0.5-0.1-1.5-0.2-1.5h7.6l0.8-0.1
		c1.7,0,2.7-0.6,3.5-2C61.1,30.5,61.1,28.3,60.2,26.7z M14,48.2v3c0,0.2,0,0.7,0,0.7H6c0,0,0-0.6,0-0.7L6,27l0,0h8v0.1V48.2L14,48.2
		L14,48.2z M17,27.6C17,27.6,17,27.6,17,27.6L17,27.6L17,27.6z M17,27.7c0-0.1,0.1-0.3,0.5-0.6c0.5-0.5,1.8-1.5,4.9-2.6l0.2-0.1
		c0.4-0.2,1.6-1.2,2.7-3c0.7-1.2,1.3-2.5,1.6-3.9c0.4-1.7,0.5-3.6,0.3-5.6c-0.2-1.8,1.3-2.2,1.8-2.2c1.4-0.2,3.1,0.5,3.6,2.7
		c0,0,0.3,1.2,0.4,3.5c0.1,2.2-0.1,6-1.3,11.3c-0.1,0.3-0.4,1.1-0.5,2.5c-0.2,1.4-0.2,3.6,0.5,6.3l0,0.1c0,0,0.4,1.7-0.6,2.9
		c-0.5,0.6-1.2,1-2.2,1.2c-1.4,0.3-3.1,0.4-5.3,0.1l-1-0.1l-0.3,2.6l1,0.1c1.1,0.1,2.1,0.2,3,0.2c2.3,0,4.2-0.4,5.6-1.3
		c0,0.2-0.1,0.4-0.1,0.6l-0.1,2.7c0,0.2,0,0.5,0,0.8l0,0.2h0c0,0,0,0.4,0.1,0.7c-1.2,0.6-2,1.8-2,3.2l-0.1,2.6
		c0,0.5,0.1,0.5,0.2,1.5h-5.4c0,0-1.6-0.3-3.4-1.1c-2.3-1-4.1-2.8-4.1-5.1V27.7z M32.7,53.2c-0.2-0.2-0.3-0.6-0.3-0.9l0.1-2.4
		c0-0.3,0.2-0.6,0.4-0.9c0.2-0.2,0.5-0.3,0.9-0.3l6.9,0.3c0.7,0,1.2,0.6,1.2,1.3l-0.1,2.4c0,0.3-0.2,0.6-0.4,0.9
		c-0.2,0.2-0.6,0.3-0.9,0.3l-6.9-0.3C33.2,53.6,32.9,53.5,32.7,53.2z M35.6,46.2c-0.3,0-0.6-0.2-0.9-0.4c-0.2-0.2-0.3-0.6-0.3-0.9
		l0.1-2.4c0-0.3,0.3-0.6,0.5-0.9c0.2-0.2,0-0.3,1-0.3v-0.5c0,0-0.1,0-0.1,0l-0.1,0.5l6.9,0.3c0.3,0,0.6,0.2,0.8,0.4s0.3,0.6,0.3,0.9
		l-0.1,2.4c0,0.7-0.6,1.2-1.3,1.2L35.6,46.2z M37.5,38.7c-0.3,0-0.5-0.1-0.7-0.2c-0.3-0.2-0.4-0.6-0.4-1.1l0.1-2.4
		c0-0.3,0.2-0.6,0.4-0.9c0.2-0.2,0.6-0.3,0.9-0.3l6.9,0.3c0.7,0,1.2,0.6,1.2,1.3l-0.1,2.4c0,0.3-0.2,0.6-0.4,0.9
		c-0.2,0.2-0.6,0.3-0.9,0.3L37.5,38.7z M43,31.4l-5.1-0.2c-1.8,0-3.3,1.1-3.8,2.7c-0.3-1.7-0.2-3-0.1-4c0.1-1.2,0.4-1.9,0.4-1.9
		l0.1-0.2c0.1-0.3,0.1-0.9,0.2-0.9h21.4c0.9,0,1.6,0.3,2,1c0.5,0.8,0.5,1.9,0,2.6c-0.3,0.5-0.8,0.8-2,0.8L43,31.4z"/>
	<path id="XMLID_49_" d="M10.1,45.1c-1.4,0-2.5,1.1-2.5,2.5s1.1,2.5,2.5,2.5c1.4,0,2.5-1.1,2.5-2.5C12.6,46.2,11.5,45.1,10.1,45.1z
		 M10.1,46.7c0.5,0,0.9,0.4,0.9,0.9s-0.4,0.9-0.9,0.9s-0.9-0.4-0.9-0.9S9.6,46.7,10.1,46.7z"/>
</g>
</svg>
